<svg width="1222" height="737" viewBox="0 0 1222 737" fill="none" xmlns="http://www.w3.org/2000/svg">
<g style="mix-blend-mode:screen">
<path d="M1148.04 319.458L1040.58 253.478C1039.03 252.532 1039.03 250.274 1040.58 249.328L1167.65 170.767" stroke="url(#paint0_linear_111_1442)" stroke-width="1.07529" stroke-miterlimit="10"/>
</g>
<path d="M1165.53 172.051L1165.61 172.186C1166.02 172.655 1167.02 172.92 1168.12 172.272C1169.32 171.558 1169.51 170.435 1169.18 169.87C1168.85 169.314 1167.78 168.935 1166.59 169.646L1166.59 169.646L1166.59 169.65C1165.38 170.364 1165.2 171.486 1165.53 172.051Z" fill="white" stroke="url(#paint1_linear_111_1442)" stroke-width="2.15057"/>
<path d="M1128.16 305.372C1127.06 304.724 1126.07 304.989 1125.65 305.458L1125.57 305.593C1125.24 306.158 1125.42 307.28 1126.63 307.994L1126.63 307.994L1126.64 307.998C1127.82 308.709 1128.89 308.33 1129.22 307.774C1129.55 307.209 1129.37 306.086 1128.16 305.372Z" fill="white" stroke="url(#paint2_linear_111_1442)" stroke-width="2.15057"/>
<path d="M950.961 163.713C951.693 164.939 953.521 165.219 955.048 164.315C956.574 163.412 957.22 161.692 956.488 160.444C955.757 159.197 953.929 158.939 952.424 159.842C950.897 160.746 950.252 162.466 950.983 163.713H950.961Z" fill="white"/>
<g style="mix-blend-mode:screen">
<path d="M1074.78 1L1255.84 112.034C1257.39 112.98 1257.39 115.238 1255.84 116.185L1167.28 170.981" stroke="url(#paint3_linear_111_1442)" stroke-width="1.07529" stroke-miterlimit="10"/>
</g>
<path d="M1170.35 169.153C1169.62 167.927 1167.79 167.648 1166.27 168.551C1164.74 169.454 1164.1 171.175 1164.83 172.422C1165.56 173.669 1167.39 173.927 1168.91 173.024C1170.44 172.121 1171.08 170.401 1170.35 169.153Z" fill="#FFA900"/>
<g style="mix-blend-mode:screen">
<path d="M1127.98 307.072L1204.21 353.546C1206.43 354.9 1209.22 354.9 1211.42 353.546L1288 306.405" stroke="url(#paint4_linear_111_1442)" stroke-width="1.07529" stroke-miterlimit="10"/>
<path d="M1124.3 305.133C1125.03 303.908 1126.86 303.628 1128.39 304.531C1129.91 305.435 1130.56 307.155 1129.83 308.402C1129.1 309.628 1127.27 309.908 1125.74 309.004C1124.22 308.101 1123.57 306.381 1124.3 305.133Z" fill="#FFA900"/>
</g>
<g style="mix-blend-mode:screen">
<path d="M829.024 281.737L752.786 235.263C750.571 233.908 747.775 233.908 745.582 235.263L669 282.403" stroke="url(#paint5_linear_111_1442)" stroke-width="1.07529" stroke-miterlimit="10"/>
</g>
<g style="mix-blend-mode:screen">
<path d="M1090.77 218.467L1014.53 171.993C1012.32 170.638 1009.52 170.638 1007.33 171.993L712.678 353.308C710.893 354.404 668.215 379.903 670 381" stroke="url(#paint6_linear_111_1442)" stroke-width="1.07529" stroke-miterlimit="10"/>
</g>
<path d="M770.12 393.265C769.389 394.491 767.561 394.771 766.034 393.867C764.507 392.964 763.862 391.244 764.593 389.996C765.324 388.749 767.152 388.491 768.679 389.394C770.206 390.298 770.851 392.018 770.12 393.265Z" fill="white"/>
<path d="M749.302 330.576C750.033 331.802 751.861 332.082 753.388 331.178C754.915 330.275 755.56 328.555 754.829 327.307C754.098 326.081 752.27 325.802 750.743 326.705C749.216 327.608 748.571 329.329 749.302 330.576Z" fill="#FFA900"/>
<path d="M497.527 622.137L497.606 622.002C498.023 621.534 499.021 621.268 500.116 621.917C501.324 622.631 501.508 623.753 501.177 624.318C500.851 624.875 499.779 625.253 498.593 624.542L498.593 624.542L498.588 624.539C497.38 623.825 497.196 622.702 497.527 622.137Z" fill="white" stroke="url(#paint7_linear_111_1442)" stroke-width="2.15057"/>
<g style="mix-blend-mode:screen">
<path d="M477.094 609.313L369.629 675.293C368.081 676.239 368.081 678.497 369.629 679.444L458.19 734.24" stroke="url(#paint8_linear_111_1442)" stroke-width="1.07529" stroke-miterlimit="10"/>
</g>
<path d="M455.115 732.412C455.846 731.186 457.674 730.907 459.179 731.81C460.706 732.713 461.351 734.434 460.62 735.681C459.889 736.907 458.061 737.186 456.534 736.283C455.007 735.38 454.362 733.659 455.093 732.412H455.115Z" fill="white"/>
<g style="mix-blend-mode:screen">
<path d="M304.94 507.398L197.476 573.377C195.928 574.324 195.928 576.582 197.476 577.528L286.037 632.325" stroke="url(#paint9_linear_111_1442)" stroke-width="1.07529" stroke-miterlimit="10"/>
</g>
<path d="M282.961 630.475C283.693 629.249 285.521 628.97 287.047 629.873C288.574 630.776 289.22 632.497 288.488 633.744C287.757 634.991 285.929 635.249 284.424 634.346C282.897 633.443 282.252 631.722 282.983 630.475H282.961Z" fill="white"/>
<path d="M541.632 422.149C540.901 423.375 539.073 423.655 537.546 422.751C536.019 421.848 535.374 420.128 536.105 418.88C536.836 417.633 538.664 417.375 540.191 418.278C541.718 419.181 542.363 420.902 541.632 422.149Z" fill="white"/>
<g style="mix-blend-mode:screen">
<path d="M161.024 512.452L84.7861 558.926C82.571 560.28 79.7754 560.28 77.5818 558.926L0.999886 511.785" stroke="url(#paint10_linear_111_1442)" stroke-width="1.07529" stroke-miterlimit="10"/>
</g>
<path d="M472.685 395.482C472.19 394.643 470.943 394.45 469.911 395.073C468.878 395.697 468.427 396.858 468.921 397.697C469.416 398.536 470.663 398.729 471.695 398.106C472.728 397.504 473.179 396.321 472.685 395.482Z" fill="white"/>
<g style="mix-blend-mode:screen">
<path d="M422.77 575.721L346.532 622.195C344.317 623.55 341.521 623.55 339.328 622.195L44.678 440.881C42.8931 439.784 42.8931 437.182 44.678 436.085L99.7542 402.278" stroke="url(#paint11_linear_111_1442)" stroke-width="1.07529" stroke-miterlimit="10"/>
</g>
<path d="M102.12 400.923C101.389 399.697 99.5606 399.418 98.0337 400.321C96.5068 401.224 95.8617 402.945 96.5929 404.192C97.3241 405.439 99.152 405.697 100.679 404.794C102.206 403.891 102.851 402.17 102.12 400.923Z" fill="#FFA900"/>
<path d="M81.3022 463.612C82.0334 462.386 83.8613 462.107 85.3882 463.01C86.9152 463.913 87.5604 465.634 86.8292 466.881C86.098 468.107 84.27 468.386 82.7431 467.483C81.2162 466.58 80.571 464.86 81.3022 463.612Z" fill="#FFA900"/>
<g style="mix-blend-mode:screen">
<path d="M336.575 381.589L412.813 335.116C415.028 333.761 417.824 333.761 420.017 335.116L579.525 433.289C581.052 434.235 582.966 434.235 584.493 433.289L668.903 381.138" stroke="url(#paint12_linear_111_1442)" stroke-width="1.07529" stroke-miterlimit="10"/>
</g>
<path d="M666.172 382.858C666.903 384.084 668.731 384.364 670.258 383.46C671.785 382.557 672.43 380.837 671.699 379.589C670.967 378.342 669.139 378.084 667.634 378.987C666.107 379.89 665.462 381.611 666.193 382.858H666.172Z" fill="#FFA900"/>
<defs>
<linearGradient id="paint0_linear_111_1442" x1="1103.53" y1="319.458" x2="1103.53" y2="170.767" gradientUnits="userSpaceOnUse">
<stop stop-color="#FF7A00"/>
<stop offset="1" stop-color="#FFA900"/>
</linearGradient>
<linearGradient id="paint1_linear_111_1442" x1="1167.35" y1="173.729" x2="1167.35" y2="168.187" gradientUnits="userSpaceOnUse">
<stop stop-color="#FF7A00"/>
<stop offset="1" stop-color="#FFA900"/>
</linearGradient>
<linearGradient id="paint2_linear_111_1442" x1="1127.39" y1="309.457" x2="1127.39" y2="303.915" gradientUnits="userSpaceOnUse">
<stop stop-color="#FF7A00"/>
<stop offset="1" stop-color="#FFA900"/>
</linearGradient>
<linearGradient id="paint3_linear_111_1442" x1="1165.89" y1="170.981" x2="1165.89" y2="1" gradientUnits="userSpaceOnUse">
<stop stop-color="#FF7A00"/>
<stop offset="1" stop-color="#FFA900"/>
</linearGradient>
<linearGradient id="paint4_linear_111_1442" x1="1207.99" y1="354.562" x2="1207.99" y2="306.405" gradientUnits="userSpaceOnUse">
<stop stop-color="#FF7A00"/>
<stop offset="1" stop-color="#FFA900"/>
</linearGradient>
<linearGradient id="paint5_linear_111_1442" x1="749.012" y1="282.403" x2="749.012" y2="234.247" gradientUnits="userSpaceOnUse">
<stop stop-color="#FF7A00"/>
<stop offset="1" stop-color="#FFA900"/>
</linearGradient>
<linearGradient id="paint6_linear_111_1442" x1="880.358" y1="381" x2="880.358" y2="170.977" gradientUnits="userSpaceOnUse">
<stop stop-color="#FF7A00"/>
<stop offset="1" stop-color="#FFA900"/>
</linearGradient>
<linearGradient id="paint7_linear_111_1442" x1="499.352" y1="620.46" x2="499.352" y2="626.002" gradientUnits="userSpaceOnUse">
<stop stop-color="#FF7A00"/>
<stop offset="1" stop-color="#FFA900"/>
</linearGradient>
<linearGradient id="paint8_linear_111_1442" x1="422.781" y1="609.313" x2="422.781" y2="734.24" gradientUnits="userSpaceOnUse">
<stop stop-color="#FF7A00"/>
<stop offset="1" stop-color="#FFA900"/>
</linearGradient>
<linearGradient id="paint9_linear_111_1442" x1="250.628" y1="507.398" x2="250.628" y2="632.325" gradientUnits="userSpaceOnUse">
<stop stop-color="#FF7A00"/>
<stop offset="1" stop-color="#FFA900"/>
</linearGradient>
<linearGradient id="paint10_linear_111_1442" x1="81.0119" y1="511.785" x2="81.0119" y2="559.942" gradientUnits="userSpaceOnUse">
<stop stop-color="#FF7A00"/>
<stop offset="1" stop-color="#FFA900"/>
</linearGradient>
<linearGradient id="paint11_linear_111_1442" x1="233.055" y1="402.278" x2="233.055" y2="623.211" gradientUnits="userSpaceOnUse">
<stop stop-color="#FF7A00"/>
<stop offset="1" stop-color="#FFA900"/>
</linearGradient>
<linearGradient id="paint12_linear_111_1442" x1="502.739" y1="334.099" x2="502.739" y2="433.999" gradientUnits="userSpaceOnUse">
<stop stop-color="#FF7A00"/>
<stop offset="1" stop-color="#FFA900"/>
</linearGradient>
</defs>
</svg>
