<svg width="1289" height="532" viewBox="0 0 1289 532" fill="none" xmlns="http://www.w3.org/2000/svg">
<g style="mix-blend-mode:screen">
<path d="M140.961 212.357L248.425 278.336C249.973 279.283 249.973 281.541 248.425 282.487L121.347 361.047" stroke="url(#paint0_linear_111_1522)" stroke-width="1.07529" stroke-miterlimit="10"/>
</g>
<path d="M123.473 359.763L123.394 359.628C122.978 359.16 121.98 358.894 120.884 359.543C119.677 360.257 119.492 361.38 119.823 361.944C120.149 362.501 121.222 362.88 122.407 362.168L122.407 362.168L122.413 362.165C123.62 361.451 123.805 360.328 123.473 359.763Z" fill="white" stroke="url(#paint1_linear_111_1522)" stroke-width="2.15057"/>
<path d="M160.842 226.442C161.937 227.09 162.935 226.825 163.352 226.357L163.431 226.222C163.762 225.657 163.578 224.534 162.37 223.82L162.37 223.82L162.365 223.817C161.179 223.105 160.107 223.484 159.781 224.041C159.45 224.605 159.634 225.728 160.842 226.442Z" fill="white" stroke="url(#paint2_linear_111_1522)" stroke-width="2.15057"/>
<path d="M338.039 368.101C337.308 366.875 335.48 366.596 333.953 367.499C332.426 368.402 331.781 370.123 332.512 371.37C333.243 372.617 335.071 372.875 336.576 371.972C338.103 371.069 338.748 369.348 338.017 368.101H338.039Z" fill="white"/>
<g style="mix-blend-mode:screen">
<path d="M214.218 530.814L33.1614 419.78C31.613 418.834 31.613 416.576 33.1614 415.63L121.722 360.833" stroke="url(#paint3_linear_111_1522)" stroke-width="1.07529" stroke-miterlimit="10"/>
</g>
<path d="M118.647 362.661C119.378 363.887 121.206 364.167 122.733 363.263C124.26 362.36 124.905 360.64 124.174 359.392C123.442 358.145 121.614 357.887 120.088 358.79C118.561 359.693 117.915 361.414 118.647 362.661Z" fill="#FFA900"/>
<g style="mix-blend-mode:screen">
<path d="M161.024 224.743L84.7864 178.269C82.5713 176.914 79.7756 176.914 77.582 178.269L1.00012 225.409" stroke="url(#paint4_linear_111_1522)" stroke-width="1.07529" stroke-miterlimit="10"/>
<path d="M164.699 226.681C163.968 227.907 162.14 228.186 160.613 227.283C159.086 226.38 158.441 224.659 159.172 223.412C159.903 222.186 161.731 221.907 163.258 222.81C164.785 223.713 165.43 225.434 164.699 226.681Z" fill="#FFA900"/>
</g>
<g style="mix-blend-mode:screen">
<path d="M459.976 250.078L536.214 296.552C538.429 297.906 541.225 297.906 543.418 296.552L620 249.411" stroke="url(#paint5_linear_111_1522)" stroke-width="1.07529" stroke-miterlimit="10"/>
</g>
<g style="mix-blend-mode:screen">
<path d="M198.23 313.348L274.468 359.822C276.683 361.176 279.479 361.176 281.672 359.822L576.322 178.507C578.107 177.41 620.785 151.911 619 150.815" stroke="url(#paint6_linear_111_1522)" stroke-width="1.07529" stroke-miterlimit="10"/>
</g>
<path d="M518.88 138.549C519.611 137.323 521.439 137.044 522.966 137.947C524.493 138.85 525.138 140.571 524.407 141.818C523.676 143.065 521.848 143.323 520.321 142.42C518.794 141.517 518.149 139.796 518.88 138.549Z" fill="white"/>
<path d="M539.698 201.238C538.967 200.012 537.139 199.733 535.612 200.636C534.085 201.539 533.44 203.26 534.171 204.507C534.902 205.733 536.73 206.013 538.257 205.109C539.784 204.206 540.429 202.486 539.698 201.238Z" fill="#FFA900"/>
<g style="mix-blend-mode:screen">
<path d="M984.06 24.4166L1091.52 -41.5629C1093.07 -42.5092 1093.07 -44.7673 1091.52 -45.7135L1002.96 -100.51" stroke="url(#paint7_linear_111_1522)" stroke-width="1.07529" stroke-miterlimit="10"/>
</g>
<path d="M747.368 109.665C748.099 108.439 749.927 108.16 751.454 109.063C752.981 109.966 753.626 111.687 752.895 112.934C752.164 114.181 750.336 114.439 748.809 113.536C747.282 112.633 746.637 110.913 747.368 109.665Z" fill="white"/>
<g style="mix-blend-mode:screen">
<path d="M1127.98 19.3627L1204.21 -27.1111C1206.43 -28.466 1209.22 -28.466 1211.42 -27.1111L1288 20.0294" stroke="url(#paint8_linear_111_1522)" stroke-width="1.07529" stroke-miterlimit="10"/>
</g>
<path d="M816.315 136.332C816.81 137.171 818.057 137.365 819.09 136.741C820.122 136.117 820.574 134.956 820.079 134.117C819.584 133.279 818.337 133.085 817.305 133.709C816.272 134.311 815.821 135.494 816.315 136.332Z" fill="white"/>
<g style="mix-blend-mode:screen">
<path d="M866.23 -43.907L942.468 -90.3809C944.683 -91.7357 947.479 -91.7357 949.672 -90.3809L1244.32 90.9338C1246.11 92.0306 1246.11 94.6328 1244.32 95.7296L1189.25 129.537" stroke="url(#paint9_linear_111_1522)" stroke-width="1.07529" stroke-miterlimit="10"/>
</g>
<path d="M1186.88 130.891C1187.61 132.117 1189.44 132.397 1190.97 131.494C1192.49 130.59 1193.14 128.87 1192.41 127.623C1191.68 126.375 1189.85 126.117 1188.32 127.02C1186.79 127.924 1186.15 129.644 1186.88 130.891Z" fill="#FFA900"/>
<path d="M1207.7 68.2023C1206.97 69.4281 1205.14 69.7077 1203.61 68.8044C1202.08 67.9012 1201.44 66.1807 1202.17 64.9334C1202.9 63.7076 1204.73 63.428 1206.26 64.3312C1207.78 65.2345 1208.43 66.9549 1207.7 68.2023Z" fill="#FFA900"/>
<g style="mix-blend-mode:screen">
<path d="M952.425 150.225L876.187 196.699C873.972 198.054 871.176 198.054 868.983 196.699L709.475 98.5253C707.948 97.579 706.034 97.579 704.507 98.5253L620.097 150.677" stroke="url(#paint10_linear_111_1522)" stroke-width="1.07529" stroke-miterlimit="10"/>
</g>
<path d="M622.828 148.956C622.097 147.73 620.269 147.451 618.742 148.354C617.215 149.257 616.57 150.978 617.301 152.225C618.033 153.472 619.861 153.731 621.366 152.827C622.893 151.924 623.538 150.204 622.807 148.956H622.828Z" fill="#FFA900"/>
<defs>
<linearGradient id="paint0_linear_111_1522" x1="185.467" y1="212.357" x2="185.467" y2="361.047" gradientUnits="userSpaceOnUse">
<stop stop-color="#FF7A00"/>
<stop offset="1" stop-color="#FFA900"/>
</linearGradient>
<linearGradient id="paint1_linear_111_1522" x1="121.648" y1="358.086" x2="121.648" y2="363.628" gradientUnits="userSpaceOnUse">
<stop stop-color="#FF7A00"/>
<stop offset="1" stop-color="#FFA900"/>
</linearGradient>
<linearGradient id="paint2_linear_111_1522" x1="161.606" y1="222.357" x2="161.606" y2="227.899" gradientUnits="userSpaceOnUse">
<stop stop-color="#FF7A00"/>
<stop offset="1" stop-color="#FFA900"/>
</linearGradient>
<linearGradient id="paint3_linear_111_1522" x1="123.109" y1="360.833" x2="123.109" y2="530.814" gradientUnits="userSpaceOnUse">
<stop stop-color="#FF7A00"/>
<stop offset="1" stop-color="#FFA900"/>
</linearGradient>
<linearGradient id="paint4_linear_111_1522" x1="81.0121" y1="177.253" x2="81.0121" y2="225.409" gradientUnits="userSpaceOnUse">
<stop stop-color="#FF7A00"/>
<stop offset="1" stop-color="#FFA900"/>
</linearGradient>
<linearGradient id="paint5_linear_111_1522" x1="539.988" y1="249.411" x2="539.988" y2="297.568" gradientUnits="userSpaceOnUse">
<stop stop-color="#FF7A00"/>
<stop offset="1" stop-color="#FFA900"/>
</linearGradient>
<linearGradient id="paint6_linear_111_1522" x1="408.642" y1="150.815" x2="408.642" y2="360.838" gradientUnits="userSpaceOnUse">
<stop stop-color="#FF7A00"/>
<stop offset="1" stop-color="#FFA900"/>
</linearGradient>
<linearGradient id="paint7_linear_111_1522" x1="1038.37" y1="24.4166" x2="1038.37" y2="-100.51" gradientUnits="userSpaceOnUse">
<stop stop-color="#FF7A00"/>
<stop offset="1" stop-color="#FFA900"/>
</linearGradient>
<linearGradient id="paint8_linear_111_1522" x1="1207.99" y1="20.0294" x2="1207.99" y2="-28.1273" gradientUnits="userSpaceOnUse">
<stop stop-color="#FF7A00"/>
<stop offset="1" stop-color="#FFA900"/>
</linearGradient>
<linearGradient id="paint9_linear_111_1522" x1="1055.95" y1="129.537" x2="1055.95" y2="-91.397" gradientUnits="userSpaceOnUse">
<stop stop-color="#FF7A00"/>
<stop offset="1" stop-color="#FFA900"/>
</linearGradient>
<linearGradient id="paint10_linear_111_1522" x1="786.261" y1="197.715" x2="786.261" y2="97.8156" gradientUnits="userSpaceOnUse">
<stop stop-color="#FF7A00"/>
<stop offset="1" stop-color="#FFA900"/>
</linearGradient>
</defs>
</svg>
