<svg width="221" height="395" viewBox="0 0 221 395" fill="none" xmlns="http://www.w3.org/2000/svg">
<g style="mix-blend-mode:screen">
<path d="M80.0399 319.458L-27.4242 253.478C-28.9726 252.532 -28.9726 250.274 -27.4242 249.328L99.6531 170.767" stroke="url(#paint0_linear_111_1420)" stroke-width="1.07529" stroke-miterlimit="10"/>
</g>
<path d="M97.527 172.051L97.6061 172.186C98.0229 172.655 99.0207 172.92 100.116 172.272C101.324 171.558 101.508 170.435 101.177 169.87C100.851 169.314 99.7788 168.935 98.5934 169.646L98.5934 169.646L98.5877 169.65C97.3804 170.364 97.1958 171.487 97.527 172.051Z" fill="white" stroke="url(#paint1_linear_111_1420)" stroke-width="2.15057"/>
<path d="M60.1588 305.372C59.0631 304.724 58.0652 304.989 57.6484 305.458L57.5693 305.593C57.2382 306.158 57.4228 307.28 58.63 307.995L58.63 307.994L58.6358 307.998C59.8212 308.709 60.8933 308.33 61.2195 307.774C61.5506 307.209 61.366 306.086 60.1588 305.372Z" fill="white" stroke="url(#paint2_linear_111_1420)" stroke-width="2.15057"/>
<g style="mix-blend-mode:screen">
<path d="M77.0935 184.875L-30.3705 118.895C-31.919 117.949 -31.919 115.691 -30.3705 114.745L58.19 59.9483" stroke="url(#paint3_linear_111_1420)" stroke-width="1.07529" stroke-miterlimit="10"/>
</g>
<path d="M55.1147 61.7763C55.8459 63.0021 57.6739 63.2817 59.1793 62.3785C60.7062 61.4752 61.3514 59.7548 60.6202 58.5074C59.889 57.2816 58.061 57.002 56.5341 57.9053C55.0072 58.8085 54.362 60.529 55.0932 61.7763H55.1147Z" fill="#FFA900"/>
<g style="mix-blend-mode:screen">
<path d="M6.7822 1.00009L187.839 112.034C189.387 112.98 189.387 115.238 187.839 116.185L99.2783 170.981" stroke="url(#paint4_linear_111_1420)" stroke-width="1.07529" stroke-miterlimit="10"/>
</g>
<path d="M102.354 169.153C101.622 167.927 99.7944 167.648 98.2675 168.551C96.7406 169.454 96.0954 171.175 96.8266 172.422C97.5578 173.669 99.3858 173.928 100.913 173.024C102.44 172.121 103.085 170.401 102.354 169.153Z" fill="#FFA900"/>
<g style="mix-blend-mode:screen">
<path d="M59.9761 307.072L136.214 353.546C138.429 354.901 141.225 354.901 143.418 353.546L220 306.405" stroke="url(#paint5_linear_111_1420)" stroke-width="1.07529" stroke-miterlimit="10"/>
<path d="M57.0513 305.523C57.7825 304.297 59.6105 304.018 61.1374 304.921C62.6643 305.824 63.3095 307.545 62.5783 308.792C61.8471 310.018 60.0191 310.298 58.4922 309.394C56.9653 308.491 56.3201 306.771 57.0513 305.523Z" fill="#FFA900"/>
</g>
<g style="mix-blend-mode:screen">
<path d="M22.7701 218.467L-53.4676 171.993C-55.6827 170.638 -58.4785 170.638 -60.672 171.993L-355.322 353.308C-357.107 354.405 -357.107 357.007 -355.322 358.104L-300.246 391.91" stroke="url(#paint6_linear_111_1420)" stroke-width="1.07529" stroke-miterlimit="10"/>
</g>
<defs>
<linearGradient id="paint0_linear_111_1420" x1="35.5338" y1="319.458" x2="35.5338" y2="170.767" gradientUnits="userSpaceOnUse">
<stop stop-color="#FF7A00"/>
<stop offset="1" stop-color="#FFA900"/>
</linearGradient>
<linearGradient id="paint1_linear_111_1420" x1="99.3521" y1="173.729" x2="99.3521" y2="168.187" gradientUnits="userSpaceOnUse">
<stop stop-color="#FF7A00"/>
<stop offset="1" stop-color="#FFA900"/>
</linearGradient>
<linearGradient id="paint2_linear_111_1420" x1="59.3944" y1="309.457" x2="59.3944" y2="303.915" gradientUnits="userSpaceOnUse">
<stop stop-color="#FF7A00"/>
<stop offset="1" stop-color="#FFA900"/>
</linearGradient>
<linearGradient id="paint3_linear_111_1420" x1="22.7808" y1="184.875" x2="22.7808" y2="59.9483" gradientUnits="userSpaceOnUse">
<stop stop-color="#FF7A00"/>
<stop offset="1" stop-color="#FFA900"/>
</linearGradient>
<linearGradient id="paint4_linear_111_1420" x1="97.8912" y1="170.981" x2="97.8912" y2="1.00009" gradientUnits="userSpaceOnUse">
<stop stop-color="#FF7A00"/>
<stop offset="1" stop-color="#FFA900"/>
</linearGradient>
<linearGradient id="paint5_linear_111_1420" x1="139.988" y1="354.562" x2="139.988" y2="306.405" gradientUnits="userSpaceOnUse">
<stop stop-color="#FF7A00"/>
<stop offset="1" stop-color="#FFA900"/>
</linearGradient>
<linearGradient id="paint6_linear_111_1420" x1="-166.945" y1="391.91" x2="-166.945" y2="170.977" gradientUnits="userSpaceOnUse">
<stop stop-color="#FF7A00"/>
<stop offset="1" stop-color="#FFA900"/>
</linearGradient>
</defs>
</svg>
